<svg width="24" height="17" viewBox="0 0 24 17" fill="none" xmlns="http://www.w3.org/2000/svg">
<path d="M11.8001 13.8109C9.03629 13.8109 6.80176 11.2449 6.80176 8.07112C6.80176 4.89734 9.03629 2.3313 11.8001 2.3313C14.5638 2.3313 16.7983 4.89734 16.7983 8.07112C16.7983 11.2449 14.5638 13.8109 11.8001 13.8109ZM11.8001 3.90694C9.80073 3.90694 8.17384 5.77519 8.17384 8.07112C8.17384 10.367 9.80073 12.2353 11.8001 12.2353C13.7994 12.2353 15.4263 10.367 15.4263 8.07112C15.4263 5.77519 13.7994 3.90694 11.8001 3.90694Z" fill="#808080"/>
<path d="M11.8 16.1176C8.85979 16.1176 6.27242 15.2847 4.11627 13.6639C2.35216 12.3358 0.940863 10.4674 0.117608 8.39645L0 8.05879L0.117608 7.74364C1.4701 4.16446 5.33156 0 11.8 0C14.6814 0 17.3668 0.877913 19.5621 2.56621C21.3654 3.93935 22.7963 5.85275 23.4824 7.76615L23.6 8.0813L23.4824 8.37394C22.1691 11.9531 18.3076 16.1176 11.8 16.1176ZM1.5093 8.05879C3.54784 12.831 8.13454 14.5418 11.8 14.5418C17.4452 14.5418 20.8362 11.1202 22.1103 8.05879C20.8362 4.8848 17.1511 1.57574 11.8 1.57574C6.19401 1.57574 2.80299 4.99735 1.5093 8.05879Z" fill="#808080"/>
</svg>
