<svg width="26" height="26" viewBox="0 0 26 26" fill="none" xmlns="http://www.w3.org/2000/svg">
<path d="M1.58431 25.2199C1.17919 25.2199 0.774068 25.0795 0.45576 24.7705C-0.15192 24.1805 -0.15192 23.1973 0.45576 22.5793L23.2871 0.442455C23.8948 -0.147485 24.9076 -0.147485 25.5442 0.442455C26.1519 1.0324 26.1519 2.01563 25.5442 2.63366L2.71285 24.7705C2.39455 25.0795 1.98943 25.2199 1.58431 25.2199Z" fill="white"/>
<path d="M24.3868 25.2199C23.9816 25.2199 23.5765 25.0795 23.2582 24.7705L0.45576 2.63366C-0.15192 2.04372 -0.15192 1.06049 0.45576 0.442455C1.06344 -0.147485 2.07624 -0.147485 2.71286 0.442455L25.5153 22.5793C26.123 23.1692 26.123 24.1524 25.5153 24.7705C25.2259 25.0795 24.7919 25.2199 24.3868 25.2199Z" fill="white"/>
</svg>
